<svg xmlns="http://www.w3.org/2000/svg" viewBox="0 0 750 500"><g id="freepik--Lamp--inject-60"><rect x="95.68" y="166.52" width="5.31" height="294.43" style="fill:#263238"></rect><rect x="38.48" y="135.1" width="178.33" height="5.31" transform="translate(-60.02 130.6) rotate(-45)" style="fill:#263238"></rect><rect x="95.68" y="434.84" width="5.31" height="57.53" transform="translate(-365.27 561.94) rotate(-90)" style="fill:#263238"></rect><polygon points="191.09 99.09 215.73 75.95 192.53 57.1 174.07 74.45 191.09 99.09" style="fill:#00FF88"></polygon><polygon points="215.73 75.94 191.09 99.09 184.32 89.29 205.45 67.6 215.73 75.94" style="opacity:0.1"></polygon><polygon points="188.54 137.75 255.04 75.26 223.28 58.16 173.44 104.99 188.54 137.75" style="fill:#00FF88"></polygon></g><g id="freepik--Chair--inject-60"><polygon points="306.36 408.52 234.75 466.26 238.78 466.26 321.49 408.52 306.36 408.52" style="fill:#c7c7c7"></polygon><polygon points="313.08 408.52 277.7 466.26 281.74 466.26 325.1 408.52 313.08 408.52" style="fill:#c7c7c7"></polygon><polygon points="330.43 408.52 365.81 466.26 361.78 466.26 318.41 408.52 330.43 408.52" style="fill:#c7c7c7"></polygon><polygon points="336.61 408.52 408.22 466.26 404.19 466.26 321.49 408.52 336.61 408.52" style="fill:#c7c7c7"></polygon><polygon points="456.13 387.34 456.13 370.45 357.79 366.41 305.85 227.74 186.84 227.74 228.95 387.34 329.55 415.58 335.86 415.58 456.13 387.34" style="fill:#263238"></polygon><polygon points="186.84 227.74 200.46 227.74 244.33 373.22 333.33 398.43 456.13 370.45 456.13 387.34 335.86 415.58 329.55 415.58 228.95 387.34 186.84 227.74" style="opacity:0.1"></polygon></g><g id="freepik--Cat--inject-60"><path d="M328.65,296.57c-.61-4.74-3-18-3.91-19.15S314.39,281,310.4,290Z" style="fill:#00FF88"></path><path d="M327.59,296.19c-.46-3.88-2.27-14.64-2.91-15.56s-7.83,3.24-10.78,10.61Z" style="fill:#ff9bbc"></path><path d="M321.62,295.52c-.3-2.89.63-6.21,3.16-7.87a6.09,6.09,0,0,1,2.77-1c-.23.09-.46.18-.68.25a3,3,0,0,0-.66.29c-3.13,1.46-4.29,5.07-4.59,8.29Z" style="fill:#00FF88"></path><path d="M320.18,295.44c-1.08-4.78.47-10.36,4.61-13.21a15.7,15.7,0,0,1,1.82-1.06c-5,3.15-6.9,8.56-6.43,14.27Z" style="fill:#00FF88"></path><path d="M297.89,293.72c-2.31-2-12.75-7.73-14.35-7.32s-1.12,12.78-.85,15.36,3.75,10.6,3.75,10.6Z" style="fill:#00FF88"></path><path d="M297.58,294.22c-1.83-1.58-9.75-6.4-11-6.07s-.89,10.11-.67,12.15,2.87,8.28,2.87,8.28Z" style="fill:#ff9bbc"></path><path d="M294,301.15c-2.62-1.89-6.11-3.39-9.26-2a3.19,3.19,0,0,0-.65.3c-.21.12-.42.24-.64.35a6.27,6.27,0,0,1,2.54-1.46c2.92-.8,6,.68,8,2.8Z" style="fill:#00FF88"></path><path d="M294.93,300c-4-4.11-9.34-6.23-15-4.56a15,15,0,0,1,2-.67c4.87-1.23,10.09,1.27,13,5.23Z" style="fill:#00FF88"></path><path d="M284.54,318.15c0,.82,2.81,4.74,7.68,7.07,0,0-7.06,13.36-7.15,18.57-.13,8.51,6.9,21.19,14.8,25.14,5.28,2.64,57.38,3.19,59.85,3.19s23.19-10.26,22.78-13.2c-.59-4.2-8-28.82-20.51-33.7-3.27-1.28-9.36-1.08-18.58,2.18,0,0-6.91-3.4-13.11-3.87,0,0,9.11-11.91,7.31-20.34-.34-1.6-16.36-13.84-19.16-14.93s-22.57,3-25.88,8.2C290.53,299.67,284.57,316.08,284.54,318.15Z" style="fill:#00FF88"></path><path d="M284.54,318.15c0,.82,2.81,4.74,7.68,7.07,0,0-7.06,13.36-7.15,18.57-.13,8.51,6.9,21.19,14.8,25.14,5.28,2.64,57.38,3.19,59.85,3.19s23.19-10.26,22.78-13.2c-.59-4.2-8-28.82-20.51-33.7-3.27-1.28-9.36-1.08-18.58,2.18,0,0-6.91-3.4-13.11-3.87,0,0,9.11-11.91,7.31-20.34-.34-1.6-16.36-13.84-19.16-14.93s-22.57,3-25.88,8.2C290.53,299.67,284.57,316.08,284.54,318.15Z" style="fill:#00FF88"></path><path d="M343.41,327.4c-3,1.46-6,3.15-9,4.46a27.72,27.72,0,0,1,9-4.46Z" style="fill:#263238"></path><path d="M292.22,327.19c-.35,1.34,3.14,2.9,7.13,2.5,5.2-.52,7.63-3.08,7.45-3.83-.29-1.29-2,.2-7.82.7C297.3,326.71,292.47,326.2,292.22,327.19Z" style="opacity:0.1"></path><path d="M288.8,333.55c-.45,1.73,4.24,3.78,9.59,3.31,7-.62,10.21-3.92,10-4.9-.41-1.68-3.13.67-10.4,1.14C294.23,333.34,289.13,332.26,288.8,333.55Z" style="opacity:0.1"></path><path d="M287.08,342.3c-.34,1.87,5.43,3.75,11.69,2.87,8.15-1.15,11.6-4.89,11.21-5.92-.67-1.76-3.62.94-12.14,1.94C293.47,341.71,287.33,340.9,287.08,342.3Z" style="opacity:0.1"></path><path d="M372.06,339.38c-.15-1.27-3.7-1.47-7,.21-4.35,2.18-5.61,5.22-5.21,5.82.69,1,1.71-.86,6.57-3.22C367.81,341.5,372.17,340.33,372.06,339.38Z" style="opacity:0.1"></path><path d="M368.33,332.71c-.18-1.65-4.95-1.88-9.45.32-5.85,2.87-7.57,6.82-7,7.59.91,1.32,2.5-1.63,8.66-4.47C363.68,334.7,368.47,333.94,368.33,332.71Z" style="opacity:0.1"></path><path d="M362.7,326.67c-.33-1.74-6-1.44-11.12,1.41-6.71,3.71-8.46,8.12-7.77,8.89,1.16,1.3,2.84-2,9.9-5.74C357.35,329.32,363,328,362.7,326.67Z" style="opacity:0.1"></path><path d="M321.93,370.17c.56,1.82,5.46,1.25,9.54-2,5.31-4.22,6.16-8.95,5.44-9.72-1.23-1.32-2.17,2.26-7.8,6.5C326.22,367.14,321.51,368.82,321.93,370.17Z" style="opacity:0.1"></path><path d="M288.6,351.93c-.11,2.23,6.85,3.54,14,1.6,9.29-2.54,12.73-7.39,12.13-8.53-1-1.94-4.07,1.63-13.79,4.05C295.92,350.3,288.69,350.28,288.6,351.93Z" style="opacity:0.1"></path><path d="M306.2,368.46c.33,2.07,6.74,2,12.69-1.08,7.75-4.05,9.88-9.17,9.12-10.11-1.28-1.61-3.29,2.24-11.44,6.27C312.38,365.6,306,366.91,306.2,368.46Z" style="opacity:0.1"></path><path d="M292.82,360.43c-.12,2.48,7.66,4,15.64,1.78,10.39-2.84,13.37-8.64,12.69-9.9-1.16-2.17-4.34,1.31-14.55,4.89C301.16,359.11,292.91,358.57,292.82,360.43Z" style="opacity:0.1"></path><path d="M382.5,358.92c2.24,1,9.75-1.77,15.13-2.15s9.74,5,9.19,7.84c-.89,4.71-11,14-23.31,16.93s-36.43,5.71-48,3-13.46-10.23-12.37-15c1.38-6.05,10.07-9.3,22-8.29,7.89.67,21.65,3.07,29.72,3.52Z" style="fill:#00FF88"></path><path d="M322.93,371.2c.26-7.07,7.57-9.51,13.51-10.28,12.34-1.45,24.31,2.52,36.5,3.47,6.06.55,12.19,1.14,18.26.38-6,1.16-12.24.81-18.33.41s-12.19-1.39-18.2-2.41c-8.76-1.26-18.57-2.69-26.81,1.3a9,9,0,0,0-4.93,7.13Z" style="fill:#263238"></path><path d="M318.26,306.24c-4.49.67-5.74,5.41-6.13,5.9s-5.63,8.35-3.29,12.17a40.72,40.72,0,0,0,5.52.29c2.51-.1,11.95-1.22,15.46-1.13,0,0,1.76-10.16-3.8-13.36C326,310.11,323.27,305.49,318.26,306.24Z" style="fill:#fff"></path><path d="M330.3,323.53c-5.08.24-10,1.13-15.09,1.61a29.84,29.84,0,0,1-9.12-.93c2.54.09,5,.23,7.55.11,5.52-.51,11.11-1.64,16.66-.79Z" style="fill:#263238"></path><path d="M324.25,301c1.56-.52,2.87.77,3.48,2.58.5,1.48.08,3.29-1.41,3.8s-3-1-3.49-2.33S322.56,301.55,324.25,301Z" style="fill:#263238"></path><path d="M306.47,305.73c-2.36.09-3.49,1.95-3.42,4.07a3.55,3.55,0,0,0,3.8,3.34,3.78,3.78,0,0,0,3.55-3.8A3.73,3.73,0,0,0,306.47,305.73Z" style="fill:#263238"></path><path d="M316.51,307.79a5.82,5.82,0,0,0,2.26.91c.19,0,1.71-1.49,1.69-1.79s-1.65,0-2.06,0S316.41,307.51,316.51,307.79Z" style="fill:#263238"></path><path d="M322.2,308.66c-.19.47-.39.94-.62,1.38a3.21,3.21,0,0,1-.4.59.51.51,0,0,1-.22.16.53.53,0,0,1-.25-.06,1.82,1.82,0,0,1-.5-.43,4.21,4.21,0,0,1-.44-.58,10.07,10.07,0,0,1-.73-1.28l-.39-.81-.1.9a10.57,10.57,0,0,1-.36,1.76,5.81,5.81,0,0,1-.32.82,1.49,1.49,0,0,1-.51.59l-.08,0-.09,0-.19,0a1.42,1.42,0,0,1-.41-.08,3.25,3.25,0,0,1-.8-.38,9.12,9.12,0,0,1-1.43-1.15,7.17,7.17,0,0,0,1.29,1.35,3.43,3.43,0,0,0,.83.49,1.37,1.37,0,0,0,1,.06,1.74,1.74,0,0,0,.74-.73,4.63,4.63,0,0,0,.39-.89,9.9,9.9,0,0,0,.42-1.85l-.5.08a9.38,9.38,0,0,0,.8,1.33,4.85,4.85,0,0,0,.51.61,2,2,0,0,0,.68.48.8.8,0,0,0,.49.05.85.85,0,0,0,.38-.3,3.63,3.63,0,0,0,.37-.7A8.52,8.52,0,0,0,322.2,308.66Z" style="fill:#263238"></path><path d="M329.82,305.09c1.25-.34,2.51-.65,3.78-.92s2.53-.53,3.81-.73l1.92-.3c.64-.08,1.28-.17,1.93-.24,1.28-.16,2.57-.25,3.87-.36l-1.95,0c-.65,0-1.3.07-1.94.13-1.3.1-2.59.28-3.87.49s-2.56.47-3.82.79c-.63.15-1.26.32-1.88.5S330.43,304.86,329.82,305.09Z" style="fill:#263238"></path><path d="M330.48,305.73l1.74-.24,1.74-.22c1.16-.13,2.32-.26,3.48-.35l1.75-.14,1.74-.09.88,0,.87,0c.59,0,1.17,0,1.76,0-1.17-.08-2.34-.12-3.51-.1s-2.34.08-3.51.17-2.33.23-3.49.41S331.62,305.45,330.48,305.73Z" style="fill:#263238"></path><path d="M330.29,306.51l1.47,0c.48,0,1,0,1.46,0,1,0,1.94,0,2.91,0s1.95.06,2.92.1l2.92.15c-.48-.08-1-.14-1.45-.2s-1-.11-1.46-.15c-1-.09-1.94-.13-2.92-.16s-1.95,0-2.93,0S331.26,306.38,330.29,306.51Z" style="fill:#263238"></path><path d="M301.17,313.67c-.8.08-1.6.2-2.39.33s-1.59.28-2.38.44c-1.58.33-3.14.73-4.69,1.17s-3.08.95-4.59,1.52c-.76.28-1.5.58-2.25.89-.37.15-.74.32-1.1.49l-1.1.5c1.5-.59,3-1.18,4.52-1.69.76-.27,1.52-.52,2.28-.77s1.54-.48,2.31-.69c1.54-.46,3.1-.85,4.66-1.22S299.58,313.94,301.17,313.67Z" style="fill:#263238"></path><path d="M300.77,314.74c-1.42.31-2.82.71-4.2,1.13s-2.76.91-4.13,1.42-2.7,1.07-4,1.68-2.61,1.26-3.88,2c.66-.3,1.31-.63,2-.91l1-.45,1-.43c.67-.29,1.34-.56,2-.83s1.35-.54,2-.79c1.35-.52,2.72-1,4.09-1.47.68-.23,1.37-.46,2.06-.67S300.08,315,300.77,314.74Z" style="fill:#263238"></path><path d="M301.4,315.52c-1.15.38-2.27.84-3.38,1.32s-2.21,1-3.29,1.54-2.15,1.12-3.19,1.74c-.53.3-1,.62-1.56.93l-1.52,1c1.06-.58,2.11-1.18,3.18-1.75s2.13-1.14,3.21-1.68,2.16-1.07,3.25-1.59c.54-.26,1.09-.52,1.64-.76S300.84,315.76,301.4,315.52Z" style="fill:#263238"></path><path d="M325.25,296.35a2.53,2.53,0,0,0-1.95-1.21,2.66,2.66,0,0,0-2.2.66c.4.12.75.16,1.09.23,1,.14,2,.28,3.06.32Z" style="fill:#263238"></path><path d="M300.48,302.84a28.61,28.61,0,0,0,2.54-1.76,9.88,9.88,0,0,0,.84-.72,2.62,2.62,0,0,0-2.25.48,2.56,2.56,0,0,0-1.13,2Z" style="fill:#263238"></path><path d="M318.27,321.58a8.39,8.39,0,0,0,2.61-2.17c.05-.07.22,0,.24.08l.21,1.05c.05-.05,1.17-1.28,1.32-4.52,0,0,.05,0,.05,0a4.88,4.88,0,0,1-1.53,5.3c-.15.08-.36-1-.38-1.17a4,4,0,0,1-2.44,1.5C318.3,321.67,318.22,321.61,318.27,321.58Z" style="fill:#263238"></path></g><g id="freepik--plant-1--inject-60"><path d="M129.2,308.48c1.12-3,3.12-18.56,3.66-27.87s-4.61-21.08-9.14-27.13-6.88-7.14-8.27-12.86-5.11-13.15-11.72-20.5-10.34-10-14.22-9.42-3.86,9.63-4.44,11.43-6.6,6.47-5.42,13.46,3.19,9.59,3.18,11.94-2.74,5.79-.73,11.55,12.2,10.88,14.48,14,6,11.6,10.25,16,11.49,7.95,14.56,11.21S129.2,308.48,129.2,308.48Z" style="fill:#00FF88"></path><path d="M129.2,308.48c1.12-3,3.12-18.56,3.66-27.87s-4.61-21.08-9.14-27.13-6.88-7.14-8.27-12.86-5.11-13.15-11.72-20.5-10.34-10-14.22-9.42-3.86,9.63-4.44,11.43-6.6,6.47-5.42,13.46,3.19,9.59,3.18,11.94-2.74,5.79-.73,11.55,12.2,10.88,14.48,14,6,11.6,10.25,16,11.49,7.95,14.56,11.21S129.2,308.48,129.2,308.48Z" style="opacity:0.1"></path><g style="opacity:0.2"><path d="M128.6,304.52C123.53,289.69,118,275,110.48,261.23c-4.8-10.82-7.74-22.22-11.46-33.4a60.74,60.74,0,0,0-3.77-9.53l-.77-1.25c2.32,3.18,3.59,7,5,10.62,4,11,7.08,22.47,11.9,33.14,7.46,13.82,12.9,28.63,17.21,43.71Z"></path><path d="M125.67,264.05a54.77,54.77,0,0,1-.36,30.51c.15-1.27.33-2.54.46-3.82a94,94,0,0,0-.1-26.69Z"></path><path d="M100.09,271.11c4.53,4.44,8.55,9.48,13.32,13.63a38,38,0,0,0,6.68,3.52c1.16.53,2.35,1,3.53,1.5a35.62,35.62,0,0,1-10.76-4.25c-5-4.12-8.9-9.28-12.77-14.4Z"></path><path d="M112.92,244.54c2,7.36,3,15.32,1.31,22.85.26-7.67-.61-15.21-1.31-22.85Z"></path><path d="M85.38,233.28C91,239.47,96.89,245.55,104,249.9c1,.68,2.09,1.15,3.14,1.75-9.2-3.1-16.51-10.43-21.8-18.37Z"></path><path d="M89.47,228.21c4.34,5.08,8.52,10.53,14.46,13.82-6.58-2-11.29-8-14.46-13.82Z"></path></g><path d="M148.19,369.59H151s-4-14.87-8.67-28.82c-5.65-16.76-12.22-29.15-12.43-35.2l-2.68.85s9.44,21.73,12.74,33.72S148.19,369.59,148.19,369.59Z" style="fill:#00FF88"></path><path d="M148.19,369.59H151s-4-14.87-8.67-28.82c-5.65-16.76-12.22-29.15-12.43-35.2l-2.68.85s9.44,21.73,12.74,33.72S148.19,369.59,148.19,369.59Z" style="opacity:0.1"></path><path d="M162.93,310a215.73,215.73,0,0,0-2.91-23.1c-.91-4.68,1-20.53,3.11-27.94s11.3-29.47,16-33.2,27-16.82,36.81-16.86,8.08,8.86,5.69,15.06-10.18,15.83-12.82,21.28-9.17,29.59-12.54,36.44-8.57,17.88-13.11,21.09S166.21,307.19,162.93,310Z" style="fill:#00FF88"></path><path d="M162.93,310a215.73,215.73,0,0,0-2.91-23.1c-.91-4.68,1-20.53,3.11-27.94s11.3-29.47,16-33.2,27-16.82,36.81-16.86,8.08,8.86,5.69,15.06-10.18,15.83-12.82,21.28-9.17,29.59-12.54,36.44-8.57,17.88-13.11,21.09S166.21,307.19,162.93,310Z" style="opacity:0.1"></path><g style="opacity:0.2"><path d="M217.34,212a80.8,80.8,0,0,0-11.21,8.64c-5.28,4.68-10.57,9.48-15,15-3.9,5.84-6.79,12.41-9.85,18.74a117.73,117.73,0,0,0-5.52,13c-2.39,7.91-5.87,19.12-8.37,27.11l-4,13.61L167,294.38c2.36-8.1,5.58-19.3,8-27.25A117.78,117.78,0,0,1,180.41,254c3.15-6.4,6.05-12.92,10.07-18.84,4.49-5.56,9.92-10.23,15.33-14.85,3.68-3,7.34-6,11.53-8.27Z"></path><path d="M214.24,228.58c-4.53,4.76-9.72,9.55-16.36,11-1.9.54-5.71,1.67-7.59,2.23-1.28.35-2.54.74-3.82,1.08a137.9,137.9,0,0,1,14.85-5.4c4.73-2.16,8.85-5.65,12.92-8.87Z"></path><path d="M182.5,227.74c-1,4-2,10.08-2.87,14.13-.24,1.22-.84,4.09-1,5.28a13.78,13.78,0,0,0,.51,5.21c.26,1.16.62,2.31,1,3.46a21.37,21.37,0,0,1-2.34-6.89c-.27-2.44.5-4.87.88-7.26a82.58,82.58,0,0,1,3.85-13.93Z"></path><path d="M195.47,262.85A64.63,64.63,0,0,1,184,274.05c-2.83,1.66-6.26,3.34-9.21,4.83-1.14.53-2.26,1.09-3.41,1.6,1-.71,2.12-1.35,3.18-2,2.79-1.72,6.08-3.59,8.9-5.22,3.83-2.73,8.47-7.24,12.06-10.38Z"></path><path d="M198.62,271.69c-4.18,4.92-8.78,10.27-14.91,12.76-3.21,1.05-7.17,2.21-10.44,3.16-1.4.37-2.8.77-4.21,1.12,1.34-.56,2.71-1.06,4.06-1.59,3.2-1.17,7.06-2.56,10.27-3.61,6-2.54,10.48-7.56,15.23-11.84Z"></path></g><path d="M164.48,308.35c-1.07,1.77-3.75,13.34-5.25,25.88-2,16.77-2.73,35.36-2.73,35.36h-4s2.57-26,4.32-37.29,6.25-24.94,6.25-24.94Z" style="fill:#00FF88"></path><path d="M164.48,308.35c-1.07,1.77-3.75,13.34-5.25,25.88-2,16.77-2.73,35.36-2.73,35.36h-4s2.57-26,4.32-37.29,6.25-24.94,6.25-24.94Z" style="opacity:0.1"></path><path d="M169.54,339.9c-5.15,10.31-6.75,29.69-6.75,29.69h-3.56s3.64-17.83,5.16-22.79c1.7-5.58,2.31-8.39,2.31-8.39Z" style="fill:#00FF88"></path><path d="M167.47,340.79a106.59,106.59,0,0,0-4.34-11.61c-1.24-2.77-3.55-10.34-3-14.36s10.06-12.5,11.94-14.08,8.28-3.26,10.16-8,1.18-10.06,4.63-13.51,15.39-6,19.14-7.89,8.48-5.33,13.41-5.53,14.8-.89,19.63,1.28,12.73,8,12,10.95-3.94,3.16-5.81,5.82-10.16,16.28-19.14,27.23-19,17.14-23.28,18.08-8.48.85-11.74,2.53-4.24,4-9.07,5.72-9.57,1.78-11.54,2.17A8.47,8.47,0,0,0,167.47,340.79Z" style="fill:#00FF88"></path><path d="M167.48,340.77a8.8,8.8,0,0,1,3.05-1.17c2-.39,6.71-.39,11.54-2.17s5.82-4,9.08-5.71,7.49-1.59,11.73-2.53,14.3-7.15,23.28-18.09c7.6-9.28,14.71-20.47,17.84-25.29-3.47,5-17.57,21.72-21.29,24.2s-20,7.8-24.36,9.47-9.68,9.76-13.42,13S169.57,338.21,167.48,340.77Z" style="fill:#00FF88"></path><path d="M167.48,340.77a8.8,8.8,0,0,1,3.05-1.17c2-.39,6.71-.39,11.54-2.17s5.82-4,9.08-5.71,7.49-1.59,11.73-2.53,14.3-7.15,23.28-18.09c7.6-9.28,14.71-20.47,17.84-25.29-3.47,5-17.57,21.72-21.29,24.2s-20,7.8-24.36,9.47-9.68,9.76-13.42,13S169.57,338.21,167.48,340.77Z" style="opacity:0.2"></path><g style="opacity:0.2"><path d="M248.45,275.93a75,75,0,0,0-13.24,3.38,213.94,213.94,0,0,0-25.41,10.1,56.06,56.06,0,0,0-11.57,7.06A129.43,129.43,0,0,0,175.75,322c-3.21,6-5.63,12.48-8.27,18.76,2.37-6.44,4.59-12.95,7.73-19.08a121.88,121.88,0,0,1,22.38-26c7.25-5.74,16-9.1,24.47-12.45,8.58-3.05,17.29-6.34,26.39-7.32Z"></path><path d="M222.31,303.9c-2.95,1.88-6.45,2.71-9.77,3.74-9.7,2.91-20.89,3.9-30.88,5.65,10.07-2.88,20.53-3.83,30.69-6.39,3.35-.86,6.83-1.5,10-3Z"></path><path d="M205.62,277.56c-4.33,3.83-7.67,8.66-11.11,13.26-2.71,3.42-4.3,7.43-5.67,11.53l-1.46,4.11c1.23-5.68,2.63-11.56,6.31-16.22,3.49-4.61,7.09-9.41,11.93-12.68Z"></path><path d="M173.78,308.59c-1.61,7.38-1.4,15-2.47,22.45a72.9,72.9,0,0,1,.07-11.35c.4-3.75.71-7.67,2.4-11.1Z"></path><path d="M215.31,271.94c-2.74,3.43-11.2,13.55-13.69,16.89-1.81,2.74-3.37,5.66-5.12,8.44,1.62-3.62,3.15-7.38,5.55-10.57a121.38,121.38,0,0,1,13.26-14.76Z"></path><path d="M231.19,285.81c-3.72,2.15-7.93,3.25-12.08,4.27-4.26.84-8.54.69-12.84.59,1.06-.17,2.12-.27,3.18-.41l6.35-.66a91,91,0,0,0,15.39-3.79Z"></path></g><path d="M139.18,351.83a24,24,0,0,1-.89-11.06c.59-5.06,3.28-10.39.31-14.68s-9.34-7.1-10.52-9.91-4.73-10.36-11.69-15.54S101,291.91,96.57,288.51s-9.92-9.62-12.88-7.4,2.67,22.11,5.33,24.44,7,19.5,11.39,22.31,8.44,3.11,9.47,4.3,3.4,5.17,7.1,6.51a113.69,113.69,0,0,1,16.13,7.84A23.76,23.76,0,0,1,139.18,351.83Z" style="fill:#00FF88"></path><g style="opacity:0.2"><path d="M139.18,351.83c-5.86-9.13-12.05-18.05-18.68-26.63-11.28-14.13-24-27.12-34.14-42.17,8.84,11.48,18.45,22.27,28,33.15a236.32,236.32,0,0,1,24.8,35.65Z"></path><path d="M130,337.31a118,118,0,0,1-26.49-13c8.59,4,18,8.74,26.49,13Z"></path><path d="M122.9,308.59A47.58,47.58,0,0,1,125.48,331a190.72,190.72,0,0,0-2.58-22.45Z"></path><path d="M113.58,299.62c2.61,6.3,4.16,13.35,3.18,20.17-.42-6.84-1.89-13.44-3.18-20.17Z"></path><path d="M87.24,298.18c6.28,3.48,13.17,7.08,19.65,10.17a51.84,51.84,0,0,1-19.65-10.17Z"></path></g><path d="M138.37,348.43c4,8.34,7.76,21.16,7.76,21.16h-2s-3.57-15-7.07-20Z" style="fill:#00FF88"></path><path d="M146.88,317.66a28.68,28.68,0,0,1,7.4-15.24c4.44-4.74,12.13-12.14,14.5-26.64s-2.57-28.09-3.55-31.51-3.26-8.14-4.89-8.43-5.17,1.62-8.13,1.92-8.88.3-14.06,7.4-12,11.83-15.83,22.34-3,28.85,4,34.47,13.62,7.25,16.58,10.06A16.68,16.68,0,0,1,146.88,317.66Z" style="fill:#00FF88"></path><g style="opacity:0.2"><path d="M158.42,237.61c-4.55,4.93-6.72,11.51-9.07,17.67-2.14,6.27-4.32,12.66-5.29,19.22a163.74,163.74,0,0,0-1.27,19.94,40,40,0,0,0,.69,9.91,79.34,79.34,0,0,0,2.81,9.61,69.68,69.68,0,0,1-3.29-9.5c-1.54-6.57-.94-13.39-.79-20.07.15-10.13,2.77-20,6.42-29.38,2.52-6.11,4.9-12.74,9.79-17.4Z"></path><path d="M166.36,260.1c-2.65,3.94-6.38,7-10.16,9.87a32,32,0,0,1-12.84,6c1.09-.47,2.18-.92,3.24-1.42a39.77,39.77,0,0,0,9-5.35,76.85,76.85,0,0,0,10.75-9.06Z"></path><path d="M139.33,246.05c.47,3,1,7.39,1.62,10.35.67,3.42,2.55,6.39,4.63,9.16-6-4.67-6.68-12.46-6.25-19.51Z"></path><path d="M124.54,269.57c1.93,4.74,4.52,11.45,6.61,16a23.57,23.57,0,0,0,7.9,9.9c1.09.93,2.25,1.81,3.41,2.68-3.77-2.18-7.55-4.67-10.16-8.27-3.66-6.31-5.82-13.35-7.76-20.34Z"></path><path d="M161.82,283c-4,7-10.35,18.54-18.46,20.87a12.46,12.46,0,0,0,3-1.82c4.62-3.62,7.76-8.71,11.28-13.35,1-1.43,3.13-4.29,4.19-5.7Z"></path><path d="M131.05,275.78c2.13,3.69,3.88,7.52,6,11.19,1.2,2.28,3.24,3.67,5.37,5a14.31,14.31,0,0,1-4.51-2.47,17,17,0,0,1-3-4.31,54.41,54.41,0,0,1-3.88-9.45Z"></path></g><path d="M153.54,369.59h2.76s-10.16-41-8.72-55.18l-1.75,1.23S145.83,339.41,153.54,369.59Z" style="fill:#00FF88"></path><polygon points="133.45 418.73 176.28 418.73 181.05 369.59 128.67 369.59 133.45 418.73" style="fill:#37474f"></polygon><polygon points="181.06 369.58 179.81 382.47 129.93 382.47 128.68 369.58 181.06 369.58" style="fill:#fff;opacity:0.9"></polygon><polygon points="179.81 382.47 178.56 395.35 131.18 395.35 129.93 382.47 179.81 382.47" style="fill:#00FF88"></polygon><polygon points="133.45 418.73 164.48 406.93 176.03 369.59 181.05 369.59 176.28 418.73 133.45 418.73" style="opacity:0.1"></polygon><rect x="117.33" y="418.73" width="74.88" height="10.91" style="fill:#00FF88"></rect><rect x="117.33" y="418.73" width="74.88" height="10.91" style="opacity:0.4"></rect><polygon points="123.55 466.26 117.96 466.26 127.72 429.63 141.11 429.63 123.55 466.26" style="fill:#00FF88"></polygon><polygon points="123.55 466.26 117.96 466.26 127.72 429.63 141.11 429.63 123.55 466.26" style="opacity:0.4"></polygon><polygon points="127.72 429.63 126.36 434.71 139.49 433 141.11 429.63 127.72 429.63" style="opacity:0.1"></polygon><polygon points="185.99 466.26 191.58 466.26 181.82 429.63 168.42 429.63 185.99 466.26" style="fill:#00FF88"></polygon><polygon points="185.99 466.26 191.58 466.26 181.82 429.63 168.42 429.63 185.99 466.26" style="opacity:0.4"></polygon><polygon points="181.82 429.63 183.17 434.71 170.04 433 168.42 429.63 181.82 429.63" style="opacity:0.1"></polygon><polygon points="158.25 466.26 151.28 466.26 148.58 429.63 160.95 429.63 158.25 466.26" style="fill:#00FF88"></polygon><polygon points="158.25 466.26 151.28 466.26 148.58 429.63 160.95 429.63 158.25 466.26" style="opacity:0.4"></polygon><polygon points="148.82 432.88 148.58 429.63 160.95 429.63 160.71 432.88 148.82 432.88" style="opacity:0.1"></polygon></g></svg>
